<?xml version="1.0" encoding="UTF-8"?>
<svg viewBox="0 0 150 150" xmlns="http://www.w3.org/2000/svg">
 <g transform="translate(0 -902.36)">
  <path d="m80.444 988.84-12.984-12.984-13.006 25.99 25.99-13.006zm6.9529 0.54512 20.456-40.911-40.911 20.456-20.456 40.911zm-15.534-65.559c-33.539 1.1165-59.499 40.305-46.152 71.406 9.3654 26.012 41.403 42.226 67.374 31.818 24.477-8.378 41.216-36.218 34.408-61.752-5.2645-24.298-28.876-43.488-54.07-41.502l-0.94171 0.0178-0.61828 0.0117zm71.9 52.998c0 37.626-30.502 68.129-68.129 68.129s-68.129-30.502-68.129-68.129 30.502-68.129 68.129-68.129 68.129 30.502 68.129 68.129z" fill-rule="evenodd"/>
 </g>
</svg>
